<?xml version="1.0" encoding="utf-8"?>
<!-- Generator: Adobe Illustrator 22.1.0, SVG Export Plug-In . SVG Version: 6.00 Build 0)  -->
<svg version="1.1" id="Layer_1" xmlns="http://www.w3.org/2000/svg" xmlns:xlink="http://www.w3.org/1999/xlink" x="0px" y="0px"
	 viewBox="0 0 128 128" style="enable-background:new 0 0 128 128;" xml:space="preserve">
<style type="text/css">
	.st0{fill:#FFFFFF;}
</style>
<title></title>
<path class="st0" d="M64,16c26.2,0,47.5,21.3,47.5,47.5S90.2,111,64,111S16.5,89.7,16.5,63.5C16.5,37.3,37.8,16,64,16 M64,9.5
	c-29.8,0-54,24.2-54,54s24.2,54,54,54s54-24.2,54-54S93.8,9.5,64,9.5z"/>
<path class="st0" d="M65.1,16c2.1,0,5.8,3.7,8.9,11.7c3.7,9.5,5.8,22.2,5.8,35.8s-2,26.3-5.8,35.8c-3.2,8-6.8,11.7-8.9,11.7
	s-5.8-3.7-8.9-11.7c-3.7-9.5-5.8-22.2-5.8-35.8s2-26.3,5.8-35.8C59.3,19.6,63,16,65.1,16 M65.1,9.5c-11.7,0-21.2,24.2-21.2,54
	s9.5,54,21.2,54s21.2-24.2,21.2-54S76.8,9.5,65.1,9.5z"/>
<g>
	<line class="st0" x1="17.7" y1="80.4" x2="112.5" y2="80.4"/>
	<rect x="17.7" y="77.1" class="st0" width="94.8" height="6.5"/>
</g>
<g>
	<line class="st0" x1="17.7" y1="46.6" x2="112.5" y2="46.6"/>
	<rect x="17.7" y="43.4" class="st0" width="94.8" height="6.5"/>
</g>
</svg>
